<svg width="19" height="18" viewBox="0 0 19 18" fill="none" xmlns="http://www.w3.org/2000/svg">
<path d="M8.54839 2.75161C8.32336 2.52665 8.01819 2.40027 7.69999 2.40027C7.3818 2.40027 7.07663 2.52665 6.85159 2.75161L1.45159 8.15161C1.22663 8.37665 1.10025 8.68182 1.10025 9.00001C1.10025 9.31821 1.22663 9.62338 1.45159 9.84841L6.85159 15.2484C7.07792 15.467 7.38104 15.588 7.69567 15.5852C8.01031 15.5825 8.31129 15.4563 8.53378 15.2338C8.75627 15.0113 8.88247 14.7103 8.8852 14.3957C8.88794 14.0811 8.76698 13.7779 8.54839 13.5516L5.29999 10.2H16.7C17.0183 10.2 17.3235 10.0736 17.5485 9.84854C17.7736 9.6235 17.9 9.31827 17.9 9.00001C17.9 8.68175 17.7736 8.37653 17.5485 8.15148C17.3235 7.92644 17.0183 7.80001 16.7 7.80001H5.29999L8.54839 4.44841C8.77336 4.22338 8.89974 3.91821 8.89974 3.60001C8.89974 3.28182 8.77336 2.97665 8.54839 2.75161Z" fill="white"/>
</svg>
