<svg width="151" height="59" viewBox="0 0 151 59" fill="none" xmlns="http://www.w3.org/2000/svg">
<path d="M70.5064 33.4458H61.9944L60.5224 41.8938H54.7304L58.7944 18.8538H74.8584L73.9624 23.8458H63.6584L62.8584 28.4538H71.3704L70.5064 33.4458ZM82.8944 26.0538C85.1984 26.0538 86.937 26.5551 88.1104 27.5578C89.0277 28.3471 89.4864 29.4458 89.4864 30.8538C89.4864 31.3231 89.433 31.8351 89.3264 32.3898L88.6544 36.1338C88.249 38.3951 87.2997 39.9951 85.8064 40.9338C84.3344 41.8725 82.361 42.3418 79.8864 42.3418C77.4117 42.3418 75.5984 41.8725 74.4464 40.9338C73.593 40.2298 73.1664 39.1738 73.1664 37.7658C73.1664 37.2751 73.2197 36.7311 73.3264 36.1338L73.9984 32.3898C74.745 28.1658 77.7104 26.0538 82.8944 26.0538ZM83.7584 33.0298C83.801 32.8165 83.8224 32.5498 83.8224 32.2298C83.8224 31.8885 83.6837 31.5151 83.4064 31.1098C83.129 30.7045 82.6384 30.5018 81.9344 30.5018C81.2517 30.5018 80.6757 30.7365 80.2064 31.2058C79.737 31.6538 79.4384 32.2618 79.3104 33.0298L78.8944 35.4298C78.8517 35.6431 78.8304 35.9205 78.8304 36.2618C78.8304 36.5818 78.969 36.9338 79.2464 37.3178C79.5237 37.7018 80.0037 37.8938 80.6864 37.8938C81.3904 37.8938 81.977 37.6591 82.4464 37.1898C82.9157 36.6991 83.2144 36.1125 83.3424 35.4298L83.7584 33.0298ZM100.957 26.0538C103.261 26.0538 105 26.5551 106.173 27.5578C107.09 28.3471 107.549 29.4458 107.549 30.8538C107.549 31.3231 107.496 31.8351 107.389 32.3898L106.717 36.1338C106.312 38.3951 105.362 39.9951 103.869 40.9338C102.397 41.8725 100.424 42.3418 97.9489 42.3418C95.4742 42.3418 93.6609 41.8725 92.5089 40.9338C91.6555 40.2298 91.2289 39.1738 91.2289 37.7658C91.2289 37.2751 91.2822 36.7311 91.3889 36.1338L92.0609 32.3898C92.8075 28.1658 95.7729 26.0538 100.957 26.0538ZM101.821 33.0298C101.864 32.8165 101.885 32.5498 101.885 32.2298C101.885 31.8885 101.746 31.5151 101.469 31.1098C101.192 30.7045 100.701 30.5018 99.9969 30.5018C99.3142 30.5018 98.7382 30.7365 98.2689 31.2058C97.7995 31.6538 97.5009 32.2618 97.3729 33.0298L96.9569 35.4298C96.9142 35.6431 96.8929 35.9205 96.8929 36.2618C96.8929 36.5818 97.0315 36.9338 97.3089 37.3178C97.5862 37.7018 98.0662 37.8938 98.7489 37.8938C99.4529 37.8938 100.04 37.6591 100.509 37.1898C100.978 36.6991 101.277 36.1125 101.405 35.4298L101.821 33.0298Z" fill="black"/>
<path d="M144.779 25.4849L146.209 25.6534C148.632 25.9389 149.128 27.8902 148.94 29.4792C148.748 31.1079 147.778 32.8464 145.395 32.5656L143.965 32.3971L142.023 48.8831L134.078 47.9471L138.009 14.5779C138.313 11.9958 140.339 10.865 142.445 11.1131C144.55 11.3611 146.258 12.9317 145.954 15.5139L144.779 25.4849ZM118.243 37.7444L130.12 39.1437C132.424 39.4151 132.885 41.3221 132.707 42.8316C132.524 44.3809 131.603 46.0446 129.339 45.7778L114.521 44.0323C109.516 43.4426 108.708 42.0988 109.274 37.292L111.899 15.0061C112.466 10.1994 113.559 9.11994 118.565 9.7096L131.754 11.2633C134.058 11.5347 134.518 13.4417 134.34 14.9512C134.157 16.5005 133.227 18.2436 130.963 17.9769L120.713 16.7695C119.998 16.6852 119.653 16.8862 119.545 17.7998L118.862 23.5997L129.19 24.8165C131.494 25.0879 132.176 26.8196 131.98 28.4881C131.788 30.1168 130.682 31.6379 128.418 31.3712L118.089 30.1544L117.345 36.4707C117.238 37.3844 117.527 37.6602 118.243 37.7444Z" fill="#4CAF50"/>
<path fill-rule="evenodd" clip-rule="evenodd" d="M49.9254 44.6937C44.4889 51.9413 35.4142 56.1357 25.787 54.8955C18.2068 53.9191 11.8119 49.7705 7.76445 43.9557C8.73604 44.4387 9.80343 44.7706 10.9401 44.917C16.4179 45.6226 21.4301 41.7543 22.1357 36.2765C22.8413 30.7988 18.973 25.7865 13.4952 25.0809C9.07026 24.5109 4.94904 26.9257 3.15641 30.7625C3.05429 29.1317 3.10515 27.4678 3.32166 25.7869C5.15616 11.5452 18.1885 1.48715 32.4303 3.32165C41.135 4.44292 48.2767 9.74746 52.0954 16.9546L44.0845 19.702C45.5927 25.363 46.7891 37.6219 40.6482 40.5893C40.3019 40.8305 39.0868 41.2635 36.5238 41.0825C35.0404 40.9777 33.4285 42.8371 35.8462 45.2227C36.4402 45.8088 37.735 46.3885 40.8354 45.7268L46.5089 45.5201C47.2474 45.4932 48.5485 45.384 49.9254 44.6937ZM10.0503 38.7528L8.43928 40.458L8.77079 42.2208C9.5362 42.5853 10.3547 42.8258 11.1956 42.9334C12.0595 43.0447 12.9095 43.013 13.7219 42.8585L14.4883 41.2372L13.363 39.1795L10.0503 38.7528ZM5.71073 33.0235L4.30948 33.7887L4.28322 33.9769C4.06221 35.6927 4.40217 37.3507 5.16029 38.7682L7.05464 39.0122L8.59932 37.3762L7.98472 34.1008L5.71073 33.0235ZM19.0128 34.7369L16.54 35.2028L15.1155 38.2155L16.1941 40.1895L18.0885 40.4335C19.2206 39.2145 19.9422 37.6713 20.1521 36.021L20.1735 35.8312L19.0128 34.7369ZM15.4684 27.6873L14.0689 28.4548L13.7473 30.9512L16.1692 33.2363L18.4838 32.8015L19.2508 31.1832C18.4103 29.6332 17.0813 28.4044 15.4704 27.6876L15.4684 27.6873ZM10.9259 27.1022C9.1858 27.3876 7.5887 28.2399 6.38297 29.5267L6.71499 31.2855L8.84276 32.2926L11.7637 30.6957L12.0853 28.1993L10.9259 27.1022Z" fill="#4CAF50"/>
</svg>
