<svg width="148" height="53" viewBox="0 0 148 53" fill="none" xmlns="http://www.w3.org/2000/svg">
<path d="M67.5064 30.4458H58.9944L57.5224 38.8938H51.7304L55.7944 15.8538H71.8584L70.9624 20.8458H60.6584L59.8584 25.4538H68.3704L67.5064 30.4458ZM79.8944 23.0538C82.1984 23.0538 83.937 23.5551 85.1104 24.5578C86.0277 25.3471 86.4864 26.4458 86.4864 27.8538C86.4864 28.3231 86.433 28.8351 86.3264 29.3898L85.6544 33.1338C85.249 35.3951 84.2997 36.9951 82.8064 37.9338C81.3344 38.8725 79.361 39.3418 76.8864 39.3418C74.4117 39.3418 72.5984 38.8725 71.4464 37.9338C70.593 37.2298 70.1664 36.1738 70.1664 34.7658C70.1664 34.2751 70.2197 33.7311 70.3264 33.1338L70.9984 29.3898C71.745 25.1658 74.7104 23.0538 79.8944 23.0538ZM80.7584 30.0298C80.801 29.8165 80.8224 29.5498 80.8224 29.2298C80.8224 28.8885 80.6837 28.5151 80.4064 28.1098C80.129 27.7045 79.6384 27.5018 78.9344 27.5018C78.2517 27.5018 77.6757 27.7365 77.2064 28.2058C76.737 28.6538 76.4384 29.2618 76.3104 30.0298L75.8944 32.4298C75.8517 32.6431 75.8304 32.9205 75.8304 33.2618C75.8304 33.5818 75.969 33.9338 76.2464 34.3178C76.5237 34.7018 77.0037 34.8938 77.6864 34.8938C78.3904 34.8938 78.977 34.6591 79.4464 34.1898C79.9157 33.6991 80.2144 33.1125 80.3424 32.4298L80.7584 30.0298ZM97.9569 23.0538C100.261 23.0538 102 23.5551 103.173 24.5578C104.09 25.3471 104.549 26.4458 104.549 27.8538C104.549 28.3231 104.496 28.8351 104.389 29.3898L103.717 33.1338C103.312 35.3951 102.362 36.9951 100.869 37.9338C99.3969 38.8725 97.4235 39.3418 94.9489 39.3418C92.4742 39.3418 90.6609 38.8725 89.5089 37.9338C88.6555 37.2298 88.2289 36.1738 88.2289 34.7658C88.2289 34.2751 88.2822 33.7311 88.3889 33.1338L89.0609 29.3898C89.8075 25.1658 92.7729 23.0538 97.9569 23.0538ZM98.8209 30.0298C98.8635 29.8165 98.8849 29.5498 98.8849 29.2298C98.8849 28.8885 98.7462 28.5151 98.4689 28.1098C98.1915 27.7045 97.7009 27.5018 96.9969 27.5018C96.3142 27.5018 95.7382 27.7365 95.2689 28.2058C94.7995 28.6538 94.5009 29.2618 94.3729 30.0298L93.9569 32.4298C93.9142 32.6431 93.8929 32.9205 93.8929 33.2618C93.8929 33.5818 94.0315 33.9338 94.3089 34.3178C94.5862 34.7018 95.0662 34.8938 95.7489 34.8938C96.4529 34.8938 97.0395 34.6591 97.5089 34.1898C97.9782 33.6991 98.2769 33.1125 98.4049 32.4298L98.8209 30.0298Z" fill="black"/>
<path d="M141.779 22.4849L143.209 22.6534C145.632 22.9389 146.128 24.8902 145.94 26.4792C145.748 28.108 144.778 29.8464 142.395 29.5656L140.965 29.3971L139.023 45.8831L131.078 44.9472L135.009 11.5779C135.313 8.99578 137.339 7.86508 139.445 8.11311C141.55 8.36114 143.258 9.93175 142.954 12.5139L141.779 22.4849ZM115.243 34.7445L127.12 36.1437C129.424 36.4152 129.885 38.3221 129.707 39.8317C129.524 41.3809 128.603 43.0446 126.339 42.7779L111.521 41.0323C106.516 40.4426 105.708 39.0988 106.274 34.2921L108.899 12.0062C109.466 7.19941 110.559 6.11997 115.565 6.70963L128.754 8.26333C131.058 8.53476 131.518 10.4417 131.34 11.9512C131.157 13.5005 130.227 15.2437 127.963 14.9769L117.713 13.7695C116.998 13.6853 116.653 13.8862 116.545 14.7999L115.862 20.5998L126.19 21.8165C128.494 22.088 129.176 23.8196 128.98 25.4881C128.788 27.1168 127.682 28.6379 125.418 28.3712L115.089 27.1544L114.345 33.4708C114.238 34.3844 114.527 34.6602 115.243 34.7445Z" fill="#4CAF50"/>
<path fill-rule="evenodd" clip-rule="evenodd" d="M46.9254 41.6937C41.4889 48.9413 32.4142 53.1357 22.787 51.8955C15.2068 50.9191 8.81188 46.7705 4.76446 40.9557C5.73605 41.4387 6.80343 41.7706 7.94011 41.917C13.4179 42.6226 18.4301 38.7543 19.1357 33.2765C19.8413 27.7988 15.973 22.7865 10.4952 22.0809C6.07026 21.5109 1.94904 23.9257 0.156409 27.7625C0.0542904 26.1317 0.10515 24.4678 0.321658 22.7869C2.15616 8.54521 15.1885 -1.51285 29.4303 0.321652C38.135 1.44292 45.2767 6.74746 49.0954 13.9546L41.0845 16.702C42.5927 22.363 43.7891 34.6219 37.6482 37.5893C37.3019 37.8305 36.0868 38.2635 33.5238 38.0825C32.0404 37.9777 30.4285 39.8371 32.8462 42.2227C33.4402 42.8088 34.735 43.3885 37.8354 42.7268L43.5089 42.5201C44.2474 42.4932 45.5485 42.384 46.9254 41.6937ZM7.05033 35.7528L5.43928 37.458L5.77079 39.2208C6.5362 39.5853 7.35469 39.8258 8.19562 39.9334C9.05948 40.0447 9.90949 40.013 10.7219 39.8585L11.4883 38.2372L10.363 36.1795L7.05033 35.7528ZM2.71073 30.0235L1.30948 30.7887L1.28322 30.9769C1.06221 32.6927 1.40217 34.3507 2.16029 35.7682L4.05464 36.0122L5.59932 34.3762L4.98472 31.1008L2.71073 30.0235ZM16.0128 31.7369L13.54 32.2028L12.1155 35.2155L13.1941 37.1895L15.0885 37.4335C16.2206 36.2145 16.9422 34.6713 17.1521 33.021L17.1735 32.8312L16.0128 31.7369ZM12.4684 24.6873L11.0689 25.4548L10.7473 27.9512L13.1692 30.2363L15.4838 29.8015L16.2508 28.1832C15.4103 26.6332 14.0813 25.4044 12.4704 24.6876L12.4684 24.6873ZM7.92594 24.1022C6.1858 24.3876 4.5887 25.2399 3.38297 26.5267L3.71499 28.2855L5.84276 29.2926L8.76371 27.6957L9.08528 25.1993L7.92594 24.1022Z" fill="#4CAF50"/>
</svg>
