<svg width="19" height="18" viewBox="0 0 19 18" fill="none" xmlns="http://www.w3.org/2000/svg">
<path d="M10.4516 2.75161C10.6766 2.52665 10.9818 2.40027 11.3 2.40027C11.6182 2.40027 11.9234 2.52665 12.1484 2.75161L17.5484 8.15161C17.7734 8.37665 17.8997 8.68182 17.8997 9.00001C17.8997 9.31821 17.7734 9.62338 17.5484 9.84841L12.1484 15.2484C11.9221 15.467 11.619 15.588 11.3043 15.5852C10.9897 15.5825 10.6887 15.4563 10.4662 15.2338C10.2437 15.0113 10.1175 14.7103 10.1148 14.3957C10.1121 14.0811 10.233 13.7779 10.4516 13.5516L13.7 10.2H2.30001C1.98175 10.2 1.67652 10.0736 1.45148 9.84854C1.22643 9.6235 1.10001 9.31827 1.10001 9.00001C1.10001 8.68175 1.22643 8.37653 1.45148 8.15148C1.67652 7.92644 1.98175 7.80001 2.30001 7.80001H13.7L10.4516 4.44841C10.2266 4.22338 10.1003 3.91821 10.1003 3.60001C10.1003 3.28182 10.2266 2.97665 10.4516 2.75161Z" fill="white"/>
</svg>
