<svg width="106" height="106" viewBox="0 0 106 106" fill="none" xmlns="http://www.w3.org/2000/svg">
<path d="M23.1328 0C24.0093 0 24.8498 0.348171 25.4696 0.967921C26.0893 1.58767 26.4375 2.42823 26.4375 3.30469V6.60938H79.3125V3.30469C79.3125 2.42823 79.6607 1.58767 80.2804 0.967921C80.9002 0.348171 81.7407 0 82.6172 0C83.4936 0 84.3342 0.348171 84.954 0.967921C85.5737 1.58767 85.9219 2.42823 85.9219 3.30469V6.60938H92.5312C96.0371 6.60938 99.3993 8.00206 101.878 10.4811C104.357 12.9601 105.75 16.3223 105.75 19.8281V92.5312C105.75 96.0371 104.357 99.3993 101.878 101.878C99.3993 104.357 96.0371 105.75 92.5312 105.75H13.2188C9.71292 105.75 6.35068 104.357 3.87168 101.878C1.39269 99.3993 0 96.0371 0 92.5312V19.8281C0 16.3223 1.39269 12.9601 3.87168 10.4811C6.35068 8.00206 9.71292 6.60938 13.2188 6.60938H19.8281V3.30469C19.8281 2.42823 20.1763 1.58767 20.796 0.967921C21.4158 0.348171 22.2564 0 23.1328 0ZM13.2188 13.2188C11.4658 13.2188 9.78471 13.9151 8.54522 15.1546C7.30572 16.3941 6.60938 18.0752 6.60938 19.8281V92.5312C6.60938 94.2842 7.30572 95.9653 8.54522 97.2048C9.78471 98.4443 11.4658 99.1406 13.2188 99.1406H92.5312C94.2842 99.1406 95.9653 98.4443 97.2048 97.2048C98.4443 95.9653 99.1406 94.2842 99.1406 92.5312V19.8281C99.1406 18.0752 98.4443 16.3941 97.2048 15.1546C95.9653 13.9151 94.2842 13.2188 92.5312 13.2188H13.2188Z" fill="#4CAF50"/>
<path d="M16.5 28.0547C16.5 27.1782 16.8482 26.3377 17.4679 25.7179C18.0877 25.0982 18.9282 24.75 19.8047 24.75H85.8984C86.7749 24.75 87.6155 25.0982 88.2352 25.7179C88.855 26.3377 89.2031 27.1782 89.2031 28.0547V34.6641C89.2031 35.5405 88.855 36.3811 88.2352 37.0008C87.6155 37.6206 86.7749 37.9688 85.8984 37.9688H19.8047C18.9282 37.9688 18.0877 37.6206 17.4679 37.0008C16.8482 36.3811 16.5 35.5405 16.5 34.6641V28.0547ZM72.6797 51.1875C72.6797 50.311 73.0279 49.4705 73.6476 48.8507C74.2674 48.231 75.1079 47.8828 75.9844 47.8828H82.5938C83.4702 47.8828 84.3108 48.231 84.9305 48.8507C85.5503 49.4705 85.8984 50.311 85.8984 51.1875V57.7969C85.8984 58.6733 85.5503 59.5139 84.9305 60.1336C84.3108 60.7534 83.4702 61.1016 82.5938 61.1016H75.9844C75.1079 61.1016 74.2674 60.7534 73.6476 60.1336C73.0279 59.5139 72.6797 58.6733 72.6797 57.7969V51.1875ZM52.8516 51.1875C52.8516 50.311 53.1997 49.4705 53.8195 48.8507C54.4392 48.231 55.2798 47.8828 56.1562 47.8828H62.7656C63.6421 47.8828 64.4826 48.231 65.1024 48.8507C65.7221 49.4705 66.0703 50.311 66.0703 51.1875V57.7969C66.0703 58.6733 65.7221 59.5139 65.1024 60.1336C64.4826 60.7534 63.6421 61.1016 62.7656 61.1016H56.1562C55.2798 61.1016 54.4392 60.7534 53.8195 60.1336C53.1997 59.5139 52.8516 58.6733 52.8516 57.7969V51.1875ZM19.8047 71.0156C19.8047 70.1392 20.1529 69.2986 20.7726 68.6789C21.3924 68.0591 22.2329 67.7109 23.1094 67.7109H29.7188C30.5952 67.7109 31.4358 68.0591 32.0555 68.6789C32.6753 69.2986 33.0234 70.1392 33.0234 71.0156V77.625C33.0234 78.5015 32.6753 79.342 32.0555 79.9618C31.4358 80.5815 30.5952 80.9297 29.7188 80.9297H23.1094C22.2329 80.9297 21.3924 80.5815 20.7726 79.9618C20.1529 79.342 19.8047 78.5015 19.8047 77.625V71.0156ZM39.6328 71.0156C39.6328 70.1392 39.981 69.2986 40.6007 68.6789C41.2205 68.0591 42.061 67.7109 42.9375 67.7109H49.5469C50.4233 67.7109 51.2639 68.0591 51.8836 68.6789C52.5034 69.2986 52.8516 70.1392 52.8516 71.0156V77.625C52.8516 78.5015 52.5034 79.342 51.8836 79.9618C51.2639 80.5815 50.4233 80.9297 49.5469 80.9297H42.9375C42.061 80.9297 41.2205 80.5815 40.6007 79.9618C39.981 79.342 39.6328 78.5015 39.6328 77.625V71.0156Z" fill="#4CAF50"/>
</svg>
