<svg width="93" height="101" viewBox="0 0 93 101" fill="none" xmlns="http://www.w3.org/2000/svg">
<path d="M28.0403 12.7955C28.0403 10.4131 28.7529 8.0843 30.088 6.10345C31.423 4.1226 33.3206 2.57871 35.5408 1.66703C37.7609 0.755341 40.2039 0.516803 42.5608 0.981576C44.9177 1.44635 47.0826 2.59356 48.7819 4.27813C50.4811 5.96271 51.6383 8.10899 52.1071 10.4456C52.5759 12.7821 52.3353 15.2041 51.4157 17.4051C50.4961 19.6061 48.9388 21.4873 46.9407 22.8109C44.9426 24.1344 42.5935 24.8409 40.1904 24.8409C36.968 24.8409 33.8776 23.5718 31.599 21.3129C29.3204 19.0539 28.0403 15.9901 28.0403 12.7955ZM78.1249 57.871L58.4894 35.8022C57.3492 34.5204 55.947 33.4939 54.3758 32.7908C52.8047 32.0876 51.1006 31.724 49.3768 31.7239H31.0041C29.2802 31.724 27.5762 32.0876 26.005 32.7908C24.4339 33.4939 23.0316 34.5204 21.8915 35.8022L2.25597 57.871C0.980972 59.1643 0.2706 60.9031 0.27843 62.7115C0.286261 64.5199 1.01166 66.2526 2.29782 67.535C3.58398 68.8174 5.32755 69.5465 7.1516 69.5647C8.97566 69.5829 10.7336 68.8886 12.0455 67.632L23.267 58.697L14.7185 90.9097C13.9748 92.5649 13.9195 94.4442 14.5645 96.1396C15.2095 97.835 16.5029 99.2099 18.164 99.9659C19.8251 100.722 21.7199 100.798 23.4373 100.178C25.1546 99.5575 26.556 98.2909 27.3373 96.6528L40.1904 74.7431L53.0262 96.6829C53.8075 98.321 55.2089 99.5876 56.9262 100.208C58.6436 100.828 60.5384 100.752 62.1995 99.996C63.8606 99.24 65.154 97.8651 65.799 96.1697C66.444 94.4743 66.3887 92.5951 65.6449 90.9398L57.1138 58.697L68.3527 67.632C69.6646 68.8886 71.4225 69.5829 73.2466 69.5647C75.0707 69.5465 76.8142 68.8174 78.1004 67.535C79.3865 66.2526 80.1119 64.5199 80.1198 62.7115C80.1276 60.9031 79.4172 59.1643 78.1422 57.871H78.1249Z" fill="#4CAF50"/>
<path d="M85.2488 66.9217C89.2007 67.4307 91.9915 71.0469 91.4825 74.9988C90.9734 78.9507 87.3573 81.7415 83.4054 81.2325C79.4535 80.7234 76.6627 77.1073 77.1717 73.1554C77.6808 69.2035 81.2969 66.4126 85.2488 66.9217ZM85.1534 77.0932L82.7635 76.7853L81.6012 78.0155L81.8404 79.2873C82.3926 79.5503 82.9831 79.7238 83.5898 79.8014C84.213 79.8817 84.8262 79.8588 85.4123 79.7474L85.9653 78.5776L85.1534 77.0932ZM79.6327 72.6519L78.6217 73.204L78.6028 73.3397C78.4433 74.5776 78.6886 75.7738 79.2356 76.7964L80.6022 76.9725L81.7166 75.7921L81.2732 73.4291L79.6327 72.6519ZM89.2295 73.888L87.4455 74.2242L86.4177 76.3977L87.1959 77.8218L88.5626 77.9979C89.3794 77.1184 89.9 76.0051 90.0514 74.8144L90.0669 74.6775L89.2295 73.888ZM86.6724 68.8021L85.6627 69.3558L85.4307 71.1568L87.178 72.8054L88.8478 72.4917L89.4012 71.3242C88.7948 70.206 87.836 69.3194 86.6738 68.8023M83.3952 68.38C82.1398 68.5859 80.9875 69.2008 80.1177 70.1291L80.3572 71.398L81.8923 72.1246L83.9996 70.9725L84.2316 69.1715L83.3952 68.38Z" fill="#4CAF50"/>
</svg>
