<svg width="128" height="95" viewBox="0 0 128 95" fill="none" xmlns="http://www.w3.org/2000/svg">
<path d="M54.0007 35.0989C53.489 33.5601 53.6091 31.8811 54.3347 30.4308C55.0603 28.9806 56.332 27.8777 57.8704 27.3646L63.9885 25.3252C64.9079 25.0192 65.8868 24.9359 66.8447 25.0822C67.8025 25.2285 68.7119 25.6002 69.498 26.1668C70.2841 26.7333 70.9244 27.4785 71.3662 28.3409C71.8079 29.2033 72.0385 30.1583 72.039 31.1272V51.5211C72.039 53.1437 72.1365 55.8764 70.9891 57.0238C69.8418 58.1712 67.5435 58.0676 65.9209 58.0676C64.2982 58.0676 63.0739 57.423 61.9265 56.2756C61.5947 54.0853 61.5947 53.4092 61.5947 51.7865V35.838C60.3106 35.8373 57.2674 38.8796 56.2261 38.1283C55.1848 37.3771 54.4062 36.3172 54.0007 35.0989ZM127.102 88.2299C127.102 89.8526 126.458 91.4088 125.31 92.5561C124.163 93.7035 122.607 94.3481 120.984 94.3481H6.77876C5.15613 94.3481 3.59995 93.7035 2.45258 92.5561C1.3052 91.4088 0.660614 89.8526 0.660614 88.2299C0.660614 86.6073 1.3052 85.0511 2.45258 83.9038C3.59995 82.7564 5.15613 82.1118 6.77876 82.1118H8.81814V35.206C8.81814 32.5016 9.89246 29.908 11.8048 27.9957C13.717 26.0834 16.3107 25.0091 19.0151 25.0091H37.3695V10.7334C37.3695 8.02902 38.4438 5.4354 40.3561 3.52311C42.2684 1.61081 44.862 0.536499 47.5664 0.536499H80.1965C82.9009 0.536499 85.4945 1.61081 87.4068 3.52311C89.3191 5.4354 90.3934 8.02902 90.3934 10.7334V45.4029H108.748C111.452 45.4029 114.046 46.4772 115.958 48.3895C117.87 50.3018 118.945 52.8954 118.945 55.5998V82.1118H120.984C122.607 82.1118 124.163 82.7564 125.31 83.9038C126.458 85.0511 127.102 86.6073 127.102 88.2299ZM90.3934 57.6392V82.1118H106.709V57.6392H90.3934ZM49.6058 82.1118H78.1571V12.7728H49.6058V82.1118ZM21.0544 82.1118H37.3695V37.2454H21.0544V82.1118Z" fill="#4CAF50"/>
</svg>
