<svg width="50" height="53" viewBox="0 0 50 53" fill="none" xmlns="http://www.w3.org/2000/svg">
<path fill-rule="evenodd" clip-rule="evenodd" d="M46.9254 41.6937C41.4889 48.9413 32.4142 53.1357 22.787 51.8955C15.2068 50.9191 8.81188 46.7705 4.76446 40.9557C5.73605 41.4387 6.80343 41.7706 7.94011 41.917C13.4179 42.6226 18.4301 38.7543 19.1357 33.2765C19.8413 27.7988 15.973 22.7865 10.4952 22.0809C6.07026 21.5109 1.94904 23.9257 0.156409 27.7625C0.0542904 26.1317 0.10515 24.4678 0.321658 22.7869C2.15616 8.54521 15.1885 -1.51285 29.4303 0.321652C38.135 1.44292 45.2767 6.74746 49.0954 13.9546L41.0845 16.702C42.5927 22.363 43.7891 34.6219 37.6482 37.5893C37.3019 37.8305 36.0868 38.2635 33.5238 38.0825C32.0404 37.9777 30.4285 39.8371 32.8462 42.2227C33.4402 42.8088 34.735 43.3885 37.8354 42.7268L43.5089 42.5201C44.2474 42.4932 45.5485 42.384 46.9254 41.6937ZM7.05033 35.7528L5.43928 37.458L5.77079 39.2208C6.5362 39.5853 7.35469 39.8258 8.19562 39.9334C9.05948 40.0447 9.90949 40.013 10.7219 39.8585L11.4883 38.2372L10.363 36.1795L7.05033 35.7528ZM2.71073 30.0235L1.30948 30.7887L1.28322 30.9769C1.06221 32.6927 1.40217 34.3507 2.16029 35.7682L4.05464 36.0122L5.59932 34.3762L4.98472 31.1008L2.71073 30.0235ZM16.0128 31.7369L13.54 32.2028L12.1155 35.2155L13.1941 37.1895L15.0885 37.4335C16.2206 36.2145 16.9422 34.6713 17.1521 33.021L17.1735 32.8312L16.0128 31.7369ZM12.4684 24.6873L11.0689 25.4548L10.7473 27.9512L13.1692 30.2363L15.4838 29.8015L16.2508 28.1832C15.4103 26.6332 14.0813 25.4044 12.4704 24.6876L12.4684 24.6873ZM7.92594 24.1022C6.1858 24.3876 4.5887 25.2399 3.38297 26.5267L3.71499 28.2855L5.84276 29.2926L8.76371 27.6957L9.08528 25.1993L7.92594 24.1022Z" fill="#4CAF50"/>
</svg>
