<svg width="50" height="50" viewBox="0 0 50 50" fill="none" xmlns="http://www.w3.org/2000/svg">
<path d="M23.4375 34.0156H0V44.9531C0 46.3406 0.494791 47.5281 1.48437 48.5156C2.47396 49.5031 3.66146 49.9979 5.04687 50H23.4375V34.0156ZM26.5625 34.0156V50H44.9531C46.3406 50 47.5281 49.5052 48.5156 48.5156C49.5031 47.526 49.9979 46.3385 50 44.9531V34.0156H26.5625ZM23.4375 30.8906V14.9031H0V30.8906H23.4375ZM26.5625 30.8906H50V14.9031H26.5625V30.8906ZM0 11.7781H50V5.04687C50 3.65937 49.5052 2.47187 48.5156 1.48437C47.526 0.496875 46.3396 0.00208333 44.9562 0H5.04687C3.65937 0 2.47187 0.494791 1.48437 1.48437C0.496875 2.47396 0.00208333 3.66146 0 5.04687V11.7781Z" fill="#4CAF50"/>
</svg>
