<svg width="51" height="51" viewBox="0 0 51 51" fill="none" xmlns="http://www.w3.org/2000/svg">
<path d="M11.6167 0.738281C12.032 0.738281 12.4302 0.903225 12.7238 1.19683C13.0174 1.49043 13.1823 1.88864 13.1823 2.30386V3.86943H38.2315V2.30386C38.2315 1.88864 38.3965 1.49043 38.6901 1.19683C38.9837 0.903225 39.3819 0.738281 39.7971 0.738281C40.2123 0.738281 40.6105 0.903225 40.9041 1.19683C41.1977 1.49043 41.3627 1.88864 41.3627 2.30386V3.86943H44.4938C46.1547 3.86943 47.7475 4.52921 48.9219 5.70362C50.0963 6.87803 50.7561 8.47087 50.7561 10.1317V44.5744C50.7561 46.2353 50.0963 47.8281 48.9219 49.0025C47.7475 50.1769 46.1547 50.8367 44.4938 50.8367H6.92002C5.25915 50.8367 3.66631 50.1769 2.4919 49.0025C1.31749 47.8281 0.657715 46.2353 0.657715 44.5744V10.1317C0.657715 8.47087 1.31749 6.87803 2.4919 5.70362C3.66631 4.52921 5.25915 3.86943 6.92002 3.86943H10.0512V2.30386C10.0512 1.88864 10.2161 1.49043 10.5097 1.19683C10.8033 0.903225 11.2015 0.738281 11.6167 0.738281ZM6.92002 7.00058C6.08958 7.00058 5.29316 7.33047 4.70596 7.91768C4.11875 8.50488 3.78887 9.3013 3.78887 10.1317V44.5744C3.78887 45.4048 4.11875 46.2012 4.70596 46.7884C5.29316 47.3756 6.08958 47.7055 6.92002 47.7055H44.4938C45.3243 47.7055 46.1207 47.3756 46.7079 46.7884C47.2951 46.2012 47.625 45.4048 47.625 44.5744V10.1317C47.625 9.3013 47.2951 8.50488 46.7079 7.91768C46.1207 7.33047 45.3243 7.00058 44.4938 7.00058H6.92002Z" fill="#4CAF50"/>
<path d="M8.47449 14.0291C8.47449 13.6139 8.63943 13.2157 8.93303 12.922C9.22664 12.6284 9.62485 12.4635 10.0401 12.4635H41.3516C41.7668 12.4635 42.165 12.6284 42.4586 12.922C42.7522 13.2157 42.9171 13.6139 42.9171 14.0291V17.1602C42.9171 17.5754 42.7522 17.9737 42.4586 18.2673C42.165 18.5609 41.7668 18.7258 41.3516 18.7258H10.0401C9.62485 18.7258 9.22664 18.5609 8.93303 18.2673C8.63943 17.9737 8.47449 17.5754 8.47449 17.1602V14.0291ZM35.0893 24.9881C35.0893 24.5729 35.2542 24.1747 35.5478 23.8811C35.8414 23.5875 36.2396 23.4225 36.6548 23.4225H39.786C40.2012 23.4225 40.5994 23.5875 40.893 23.8811C41.1866 24.1747 41.3516 24.5729 41.3516 24.9881V28.1193C41.3516 28.5345 41.1866 28.9327 40.893 29.2263C40.5994 29.5199 40.2012 29.6848 39.786 29.6848H36.6548C36.2396 29.6848 35.8414 29.5199 35.5478 29.2263C35.2542 28.9327 35.0893 28.5345 35.0893 28.1193V24.9881ZM25.6958 24.9881C25.6958 24.5729 25.8608 24.1747 26.1544 23.8811C26.448 23.5875 26.8462 23.4225 27.2614 23.4225H30.3925C30.8078 23.4225 31.206 23.5875 31.4996 23.8811C31.7932 24.1747 31.9581 24.5729 31.9581 24.9881V28.1193C31.9581 28.5345 31.7932 28.9327 31.4996 29.2263C31.206 29.5199 30.8078 29.6848 30.3925 29.6848H27.2614C26.8462 29.6848 26.448 29.5199 26.1544 29.2263C25.8608 28.9327 25.6958 28.5345 25.6958 28.1193V24.9881ZM10.0401 34.3816C10.0401 33.9663 10.205 33.5681 10.4986 33.2745C10.7922 32.9809 11.1904 32.816 11.6056 32.816H14.7368C15.152 32.816 15.5502 32.9809 15.8438 33.2745C16.1374 33.5681 16.3024 33.9663 16.3024 34.3816V37.5127C16.3024 37.9279 16.1374 38.3261 15.8438 38.6197C15.5502 38.9133 15.152 39.0783 14.7368 39.0783H11.6056C11.1904 39.0783 10.7922 38.9133 10.4986 38.6197C10.205 38.3261 10.0401 37.9279 10.0401 37.5127V34.3816ZM19.4335 34.3816C19.4335 33.9663 19.5985 33.5681 19.8921 33.2745C20.1857 32.9809 20.5839 32.816 20.9991 32.816H24.1302C24.5455 32.816 24.9437 32.9809 25.2373 33.2745C25.5309 33.5681 25.6958 33.9663 25.6958 34.3816V37.5127C25.6958 37.9279 25.5309 38.3261 25.2373 38.6197C24.9437 38.9133 24.5455 39.0783 24.1302 39.0783H20.9991C20.5839 39.0783 20.1857 38.9133 19.8921 38.6197C19.5985 38.3261 19.4335 37.9279 19.4335 37.5127V34.3816Z" fill="#4CAF50"/>
</svg>
