<svg width="44" height="40" viewBox="0 0 44 40" fill="none" xmlns="http://www.w3.org/2000/svg">
<path d="M28.7637 14.7185C30.5052 14.7185 31.9185 16.1251 31.9185 17.8583V29.967C31.9185 32.5846 30.8737 35.095 29.0139 36.9459C27.1541 38.7969 24.6316 39.8367 22.0014 39.8367C19.3712 39.8367 16.8488 38.7969 14.989 36.9459C13.1291 35.095 12.0843 32.5846 12.0843 29.967V17.8583C12.0843 16.1251 13.4959 14.7185 15.2392 14.7185H28.7637ZM3.51748 14.7185L11.4173 14.7149C10.7676 15.494 10.3765 16.4542 10.2978 17.4636L10.2797 17.8583V29.967C10.2797 31.9998 10.8043 33.9124 11.7219 35.5774C10.4869 36.1142 9.13697 36.3363 7.79406 36.2237C6.45114 36.1111 5.15757 35.6673 4.03019 34.9324C2.90282 34.1976 1.97715 33.1948 1.33683 32.0146C0.696498 30.8344 0.361678 29.5141 0.362612 28.1729V17.8583C0.362612 17.4458 0.444275 17.0374 0.602935 16.6563C0.761594 16.2753 0.994141 15.9291 1.28729 15.6375C1.58044 15.3459 1.92844 15.1147 2.31142 14.957C2.69439 14.7993 3.10303 14.7183 3.51748 14.7185ZM32.5874 14.7149L40.4745 14.7185C42.216 14.7185 43.6294 16.1251 43.6294 17.8583V28.1747C43.63 29.5152 43.2951 30.8348 42.6551 32.0143C42.015 33.1938 41.0899 34.1962 39.9633 34.9309C38.8367 35.6657 37.544 36.1096 36.2018 36.2228C34.8596 36.336 33.5103 36.1148 32.2755 35.5792L32.3764 35.3962C33.1498 33.9375 33.6204 32.2941 33.7069 30.5519L33.7213 29.967V17.8583C33.7213 16.6634 33.2959 15.5689 32.5874 14.7149ZM21.996 0.365234C22.8246 0.365234 23.6451 0.52766 24.4106 0.843237C25.1762 1.15881 25.8718 1.62136 26.4577 2.20447C27.0436 2.78758 27.5084 3.47984 27.8255 4.24171C28.1425 5.00358 28.3058 5.82014 28.3058 6.64479C28.3058 7.46943 28.1425 8.286 27.8255 9.04787C27.5084 9.80974 27.0436 10.502 26.4577 11.0851C25.8718 11.6682 25.1762 12.1308 24.4106 12.4463C23.6451 12.7619 22.8246 12.9243 21.996 12.9243C20.3226 12.9243 18.7177 12.2627 17.5344 11.0851C16.351 9.90746 15.6863 8.31023 15.6863 6.64479C15.6863 4.97935 16.351 3.38212 17.5344 2.20447C18.7177 1.02683 20.3226 0.365234 21.996 0.365234ZM36.4237 2.15939C37.1339 2.15939 37.8372 2.29861 38.4934 2.56911C39.1495 2.8396 39.7458 3.23607 40.248 3.73588C40.7502 4.23569 41.1486 4.82905 41.4204 5.48208C41.6922 6.13511 41.832 6.83503 41.832 7.54187C41.832 8.2487 41.6922 8.94862 41.4204 9.60165C41.1486 10.2547 40.7502 10.848 40.248 11.3478C39.7458 11.8477 39.1495 12.2441 38.4934 12.5146C37.8372 12.7851 37.1339 12.9243 36.4237 12.9243C34.9893 12.9243 33.6137 12.3573 32.5994 11.3478C31.5851 10.3384 31.0153 8.96939 31.0153 7.54187C31.0153 6.11435 31.5851 4.74529 32.5994 3.73588C33.6137 2.72647 34.9893 2.15939 36.4237 2.15939ZM7.56834 2.15939C8.27857 2.15939 8.98185 2.29861 9.63802 2.56911C10.2942 2.8396 10.8904 3.23607 11.3926 3.73588C11.8948 4.23569 12.2932 4.82905 12.565 5.48208C12.8368 6.13511 12.9767 6.83503 12.9767 7.54187C12.9767 8.2487 12.8368 8.94862 12.565 9.60165C12.2932 10.2547 11.8948 10.848 11.3926 11.3478C10.8904 11.8477 10.2942 12.2441 9.63802 12.5146C8.98185 12.7851 8.27857 12.9243 7.56834 12.9243C6.13395 12.9243 4.75832 12.3573 3.74406 11.3478C2.72979 10.3384 2.15999 8.96939 2.15999 7.54187C2.15999 6.11435 2.72979 4.74529 3.74406 3.73588C4.75832 2.72647 6.13395 2.15939 7.56834 2.15939Z" fill="#4CAF50"/>
</svg>
