<svg width="68" height="63" viewBox="0 0 68 63" fill="none" xmlns="http://www.w3.org/2000/svg">
<path d="M56.0908 0.97563C63.2061 1.89215 68.2308 8.40279 67.3143 15.518C66.3978 22.6333 59.8871 27.658 52.7719 26.7415C45.6566 25.825 40.6319 19.3143 41.5484 12.1991C42.4649 5.08385 48.9756 0.059106 56.0908 0.97563ZM55.919 19.2889L51.6161 18.7346L49.5235 20.9495L49.9541 23.2393C50.9483 23.7127 52.0115 24.0252 53.1038 24.1649C54.2259 24.3094 55.33 24.2683 56.3852 24.0677L57.3808 21.9616L55.919 19.2889ZM45.9792 11.2925L44.1591 12.2865L44.125 12.531C43.8379 14.7597 44.2795 16.9134 45.2643 18.7546L47.7249 19.0716L49.7313 16.9464L48.933 12.6919L45.9792 11.2925ZM63.2578 13.5182L60.0458 14.1234L58.1954 18.0367L59.5965 20.6008L62.0572 20.9177C63.5277 19.3342 64.4651 17.3298 64.7377 15.1861L64.7655 14.9396L63.2578 13.5182ZM58.6539 4.36124L56.836 5.35816L56.4183 8.60079L59.5642 11.569L62.5706 11.0042L63.5669 8.90215C62.4752 6.88885 60.7489 5.29261 58.6564 4.36157M52.7535 3.6012C50.4931 3.9719 48.4186 5.07902 46.8524 6.75044L47.2837 9.03505L50.0476 10.3432L53.8417 8.2689L54.2594 5.02627L52.7535 3.6012Z" fill="#4CAF50"/>
<path d="M17.5949 8.11331C17.5949 6.64723 18.0296 5.21408 18.8441 3.99508C19.6586 2.77608 20.8163 1.82598 22.1708 1.26494C23.5253 0.703895 25.0157 0.557101 26.4536 0.843118C27.8915 1.12914 29.2123 1.83512 30.249 2.87179C31.2857 3.90847 31.9917 5.22927 32.2777 6.66718C32.5637 8.10509 32.4169 9.59552 31.8559 10.95C31.2948 12.3045 30.3447 13.4622 29.1257 14.2767C27.9067 15.0912 26.4736 15.5259 25.0075 15.5259C23.0415 15.5259 21.1561 14.745 19.766 13.3548C18.3758 11.9647 17.5949 10.0793 17.5949 8.11331ZM48.1508 35.8524L36.1714 22.2714C35.4758 21.4827 34.6203 20.8509 33.6618 20.4182C32.7033 19.9855 31.6636 19.7617 30.612 19.7617H19.403C18.3513 19.7617 17.3117 19.9855 16.3532 20.4182C15.3946 20.8509 14.5392 21.4827 13.8436 22.2714L1.86423 35.8524C1.08636 36.6483 0.652977 37.7183 0.657754 38.8312C0.662531 39.9441 1.10509 41.0104 1.88975 41.7996C2.67442 42.5888 3.73815 43.0374 4.85098 43.0486C5.96381 43.0598 7.03633 42.6325 7.83668 41.8593L14.6828 36.3607L9.46746 56.1842C9.01372 57.2028 8.97995 58.3592 9.37348 59.4026C9.76701 60.4459 10.5561 61.292 11.5695 61.7572C12.5829 62.2225 13.7389 62.2693 14.7866 61.8876C15.8344 61.5059 16.6893 60.7265 17.166 59.7184L25.0075 46.2354L32.8384 59.7369C33.3151 60.745 34.17 61.5245 35.2178 61.9062C36.2655 62.2879 37.4215 62.241 38.4349 61.7758C39.4483 61.3105 40.2374 60.4645 40.6309 59.4211C41.0244 58.3778 40.9907 57.2213 40.5369 56.2027L35.3322 36.3607L42.1889 41.8593C42.9892 42.6325 44.0618 43.0598 45.1746 43.0486C46.2874 43.0374 47.3512 42.5888 48.1358 41.7996C48.9205 41.0104 49.363 39.9441 49.3678 38.8312C49.3726 37.7183 48.9392 36.6483 48.1614 35.8524H48.1508Z" fill="#4CAF50"/>
</svg>
